<?xml version="1.0" encoding="UTF-8"?>
<svg version="1.1" viewBox="0 0 1520 1559" width="1520" height="1559" xmlns="http://www.w3.org/2000/svg">
<path transform="translate(577,865)" d="m0 0 26 1 420 20 10 3 5 4 3 6v9l-6 12-19 28-12 18-4 7v112l16 1 95 10 1-61-27-3-22-4-10-5-4-7v-9l4-8 5-4 3-1h10l42 5 277 37 8 4 7 8v11l-18 57-26 84-22 72-20 65-5 8-4 3-3 1-329 1h-127l-244-1-40-1-37-3-35-5-35-7-34-9-41-14-26-11-29-14-24-13-24-15-16-11-16-12-11-9-14-12-23-23-9-11-12-15-13-20-9-16-12-25-10-30-5-23-2-15-1-13v-12l3-9 5-5 5-2h14l283 30h10l5-3 13-19 12-16 13-19 12-16 13-19 12-16 11-16 12-17 8-10 9-6zm9 37-6 4-8 10-13 18-10 14-13 18-12 17-13 18-12 17-7 12 2 1 232 25h2l20-139v-7l-6-2-128-6zm198 9-2 9-19 133v6l1 1 198 21h1l1-103 2-15 8-16 17-25v-2l-34-2-151-7zm-620 120 1 8 10 37 5 4 20 3 1108 123h10l5-3 8-24 6-20v-3l-43-5-1122-120zm985 9v61l35 4 57 6v-59l-49-7-37-5zm128 17v57l1 1 55 6h12l5-5 13-41 1-7-83-11zm-1085 60 7 11 11 16 11 14 12 14 22 22 11 9 15 12 20 14 22 13 24 13 26 12 33 13 34 11 36 9 31 6 37 5 37 3 33 1h669l6-3 6-16 16-52v-3l-42-5-1072-119z" fill="#868686"/>
<path transform="translate(804,304)" d="m0 0h58l15 6 9 7 8 8 6 12 3 12 1 15 3 7h6l9-5 7-7 11-7 12-4 5-1h12l12 3 12 6 11 10 8 7 12 12 9 11 5 9 4 13v12l-4 13-7 12-7 9-2 7 1 10 5 8v2l5 2 4 2 22 3 12 5 8 6 8 9 7 14 2 6v56l-7 16-8 11-9 8-12 5-25 3-7 4-3 6v8l4 7 9 12 4 10 1 4v15l-3 10-6 11-12 12-7 8-7 7-8 7-7 7-14 8-8 2h-18l-13-5-14-10-3-1h-11l-5 5-3 7-2 18-5 13-8 11-12 9-12 5-3 1h-59l-12-5-10-6-9-9-7-14-2-9-2-15-4-8-9-6-3-1h-10l-8 4-10 8-12 6-9 2h-11l-12-3-11-6-12-11-22-22-9-13-5-13-1-4v-13l4-13 6-11 7-9 6-8 1-2v-7l-7-3-24-3-12-5-9-7-8-10-7-16-1-4v-52l7-17 7-10 4-5 9-6 11-4 24-3 5-3h2l2-5 1-8-4-8-11-15-8-14-3-11v-11l3-13 8-17 9-12 8-9 13-10 14-7 12-3h17l10 4 19 12 12 7 3 1h10l6-5 2-4 2-18 4-13 7-11 10-9 16-8zm8 30-8 2-6 4-4 7-3 24-5 13-9 10-10 7-9 3-5 1h-11l-11-3-10-5-13-12-7-5-3-1h-15l-10 5-18 18-9 12-2 5v9l5 10 9 11 8 10 4 10 1 4v13l-4 14-6 10-7 7-10 5-12 3-14 1-9 3-7 8-2 8v44l3 8 8 7 5 2 20 1 13 4 9 6 7 10 3 9 1 5v8l-3 10-6 10-10 10-6 10-1 3v8l5 10 14 15 12 12 9 6 2 1h10l8-4 10-7 12-6 10-2h12l13 3 11 6 8 7 7 11 4 10 4 23 5 8 7 4 4 1h45l9-3 5-5 3-7 3-24 5-12 9-10 16-8 9-2h10l9 2 10 5 12 10 5 2h7l9-6 33-33 4-7v-7l-4-8-7-8-6-12-2-9 1-13 5-14 6-8 9-8 10-4 10-2 13-1 9-3 6-7 2-6v-48l-3-7-4-5-6-3-22-3-13-5-9-7-8-10-6-13-2-8v-16l3-10 6-11 8-13 2-4v-9l-6-9-26-26-9-5-4-1h-7l-10 4-12 11-9 8-10 3h-10l-13-4-10-6-7-9-4-12-1-17-2-9-4-6-5-4-8-2z" fill="#868686"/>
<path transform="translate(822,469)" d="m0 0h21l16 3 16 6 11 6 13 10 9 9 10 14 7 15 5 19 1 9v12l-3 19-6 16-6 11-9 12-11 11-10 7-15 8-15 5-11 2h-24l-15-3-16-6-14-8-15-13-11-14-8-15-6-20-1-7v-23l4-18 7-16 7-11 11-12 7-7 15-10 17-7 12-3zm8 29-14 2-13 5-10 6-10 9-6 7-8 15-3 11v24l3 12 7 14 7 9 7 7 11 7 11 5 16 3h10l16-3 16-8 10-8 8-9 8-15 4-16v-17l-4-16-7-14-9-11-10-8-14-7-11-3z" fill="#868686"/>
</svg>
