<?xml version="1.0" encoding="UTF-8"?>
<svg version="1.1" viewBox="0 0 1520 1559" width="1520" height="1559" xmlns="http://www.w3.org/2000/svg">
<path transform="translate(1227,739)" d="m0 0h31l20 4 15 5 13 7 11 9 8 11 5 11 2 9v15l-4 16-8 16-9 16-14 23-16 25-13 19-12 17-14 19-22 28-11 13-9 11-12 13-7 8-12 13-14 14-6 7-8 7-16 16-8 7-12 11-11 9-14 12-14 11-18 14-20 12-15 7-24 8-21 4-8 1-89 1-206 1-19 3-13 1-13-4-9-4 3-11 4-10 4-4 14-4 14-2 41-1h261l18-2 17-4 16-6 19-10 14-10 18-14 16-13 14-12 10-9 8-7 16-15 30-30 7-8 12-13 9-11 9-10 11-14 13-16 14-19 13-18 16-24 13-20 16-26 13-23 3-9v-9l-4-8-10-7-12-5-12-3-9-1h-12l-14 2-16 5-13 7-10 8-9 10-12 23-10 16-12 16-11 12-12 12-14 11-13 9-17 10-27 13-14 6-7 8-3 8-2 23-4 16-7 14-7 9-8 8-11 7-14 6-14 3-26 1h-177l-39-1-8-4-14-12 5-5 11-10 6-3 19-1 213-1 13-3 9-5 8-7 6-12 1-3v-17l-4-10-6-8-9-6-7-3-5-1-18-1-122-1-23-3-21-5-16-6-16-8-12-8-13-11-10-8-7-3-63-8-21-2h-46l-21 3-21 6-17 7-17 10-16 13-34 34-8 7-15 13-6 4-3 1h-22l-1-18 2-10 42-42 8-7 12-11 11-9 12-10 16-10 14-7 21-7 17-3 11-1h112l17 2 17 4 19 7 21 11 21 14 17 9 21 7 19 3h100l28 1 18 2 12 3 10 5 8 5 11 3 13-1 16-6 26-13 19-12 14-11 13-12 10-11 12-17 9-16 8-14 8-10 9-10 14-11 16-9 19-7z" fill="#868686"/>
<path transform="translate(810,247)" d="m0 0h21l15 1 15 4 11 6 11 11 7 12 4 13 7 43 5 15 7 11 8 7 8 4 4 1h16l15-5 13-8 18-14 15-10 14-6 9-2h16l13 4 10 5 10 8 13 12 16 16 9 13 4 10 2 9v13l-4 15-7 13-10 14-15 20-6 10-4 12-1 6v8l3 11 6 9 8 7 12 6 12 3 31 4 17 4 14 6 9 7 7 8 5 10 3 12 1 7v43l-2 16-5 13-7 10-8 7-16 8-18 4-37 5-13 4-10 6-8 9-4 9-1 4v17l4 14 3 7v14l-3 15-17-4-8-4-8-9-8-16-3-12-1-16 2-14 5-15 7-13 11-13 10-8 16-8 21-5 40-6 11-4 4-2 2-4 3-8v-40l-4-10-7-5-11-3-38-7-17-3-11-4-10-6-10-9-9-13-8-16-5-15-2-11v-13l3-14 5-11 7-11 9-10 11-17 6-12 2-7v-15l-4-10-9-10-11-7-10-5h-13l-14 7-14 10-14 12-13 8-11 5-13 3h-16l-14-3-13-5-17-9-10-8-9-9-7-12-4-13-5-30-2-18-3-10-6-8-9-4-4-1h-32l-11 2-5 3h-2l-2 5-3 11-5 36-4 17-5 13-6 11-11 12-11 8-15 7-18 5-6 1h-22l-13-4-12-7-14-11-18-12-14-7-9-2h-7l-9 3-8 6-9 10-8 14v16l7 14 12 16 14 19 7 14 4 14 1 8v13l-3 15-5 13-7 12-11 12-10 8-16 8-15 4-46 8-10 4-5 5-2 5-2 17v22l3 10 5 7 10 5 9 2 19 2 26 5 13 5 12 7 12 11 8 9 8 14 6 16 2 18-1 9-4 6-9 10-3 2-16-13-3-5-6-23-5-13-7-9-8-5-13-4-44-7-17-5-11-6-7-6-7-11-5-16-2-18v-29l2-17 5-16 6-9 7-7 16-8 19-5 37-6 12-4 9-5 7-7 5-11 2-10v-12l-3-12-9-14-11-14-10-13-8-13-4-13-1-6v-12l3-12 5-10 7-9 8-9 8-7 11-10 8-7 9-9 10-5 3-1h16l12 4 13 7 15 11 20 15 16 8 9 2h12l10-3 9-6 7-8 6-13 3-12 6-38 4-15 7-13 7-8 11-7 11-4 10-2z" fill="#868686"/>
<path transform="translate(301,966)" d="m0 0h12l13 3 16 8 10 8 10 9 27 27 8 7 44 44 8 7 51 51 8 7 56 56 8 7 11 12 8 13 5 15 1 7v8l-3 14-5 12-7 10-9 10-39 39-8 7-21 21-8 4-3 1h-8l-12-6-56-56-8-7-96-96-8-7-65-65-8-7-33-33-11-9-8-7v-20l13-13 8-7 15-14 10-9 15-14 17-16 13-10 14-7 9-3zm-6 40-10 6-15 13-13 12-14 14-8 7-3 4 7 7 7 8 10 10 7 8 11 11 7 8 10 10 7 8 11 11 7 8 10 10 7 8 11 11 7 8 10 10 7 8 10 10 7 8 11 11 7 8 10 10 7 8 11 11 7 8 10 10 7 8 11 11 7 8 10 10 7 8h3l12-13 9-11 14-15 7-8 15-16 7-9 3-8v-9l-3-8-7-9-16-16-8-7-35-35-8-7-35-35-8-7-28-28-8-7-21-21-8-7-17-17-8-7-13-13-8-7-6-5-7-3-5-1z" fill="#868686"/>
<path transform="translate(814,450)" d="m0 0 23 1 24 4 20 6 20 8 20 11 15 11 13 11 14 14 13 17 8 13 8 15 7 19 5 19 3 21v26l-3 23-5 20-7 19-8 16-8 14-10 13-12 14-14 13-15 11-15 9-21 10-22 7-19 4-19 2h-23l-24-3-20-5-20-7-20-10-18-12-10-8-10-9-11-11-11-14-11-17-11-23-6-18-4-18-2-15v-29l3-21 5-19 6-16 8-17 10-16 10-13 11-12 11-11 17-13 18-11 19-9 24-8 20-4zm-9 36-20 3-20 6-18 8-13 8-12 9-12 11-11 12-12 18-11 23-6 21-2 12-1 13v12l2 20 5 20 6 16 9 17 11 15 11 12 8 8 15 11 16 9 16 7 17 5 18 3h33l22-4 21-7 23-12 16-12 12-11 10-11 11-16 10-19 7-21 3-16 1-10v-18l-3-22-5-18-8-18-8-14-12-16-12-13-11-9-14-10-19-10-16-6-23-5-9-1z" fill="#868686"/>
</svg>
