<?xml version="1.0" encoding="UTF-8"?>
<svg version="1.1" viewBox="0 0 1520 1559" width="1520" height="1559" xmlns="http://www.w3.org/2000/svg">
<path transform="translate(698,247)" d="m0 0h89l16 4 37 6 38 8 36 10 33 11 32 13 30 14 23 13 17 10 15 10 14 10 17 13 13 11 10 9 8 7 26 26 7 8 12 14 13 17 12 16 17 26 9 15 14 25 14 28 13 30 14 37 8 27 8 38 10 55 1 4v87l-3 9-5 38-7 36-7 28-12 37-12 30-13 28-12 23-13 22-16 25-10 14-3 10v38l-3 14-6 15-8 11-10 10-13 8-18 6-6 1-37 1-13 4-12 7-15 10-21 13-27 15-24 12-31 13-33 11-40 10-85 17h-87l-11-3-43-7-37-8-33-9-36-12-27-11-24-11-27-14-25-15-19-13-19-14-17-14-11-10-8-7-28-28-7-8-11-13-13-17-14-19-13-20-12-20-10-18-12-23-15-33-14-36-8-25-7-29-15-80v-84l17-83 11-44 9-27 13-30 34-68 6-8 8-4 9 1 9 6 4 5 1 9-4 10-15 27-16 32-13 31-9 25-9 29-7 30-5 28-4 36-1 19v33l2 31 5 37 6 30 8 31 12 36 10 26 11 24 11 22 16 27 12 18 13 18 13 16 9 11 24 26 8 8 8 7 12 11 11 9 15 12 18 13 20 13 20 12 26 14 28 13 28 11 34 11 32 8 26 5 31 4 26 2h48l35-3 32-5 29-6 30-8 33-11 32-13 33-16 24-14 21-14 12-9 5-4h2l-6-16-4-14-1-6v-23l4-14 7-13 10-12 11-9 14-8 14-4 13-1 16 2 21 7 4 2 4-1 13-17 16-24 14-24 10-19 12-27 11-29 10-33 8-35 5-31 3-30 1-17v-45l-2-29-5-37-7-34-8-30-11-32-10-24-12-26-12-22-12-20-12-18-13-18-11-14-12-14-18-20-22-22-8-7-15-13-13-10-19-14-20-13-20-12-26-14-28-13-26-10-33-11-36-9-26-5-30-4-23-2-25-1h-18l-38 2-33 4-32 6-32 8-36 12-29 12-27 13-23 13-22 14-18 13-14 11-14 12-10 9-7 6 2 4 16 16 8 7 51 51 4-2 13-11 20-15 15-10 15-9 22-12 24-11 30-11 28-8 34-7 33-4 17-1h33l27 2 29 4 28 6 27 8 25 9 20 9 16 8 20 11 13 8 6 2h11l10-4 13-5 9-2h19l16 4 15 8 11 9 10 12 7 14 4 14 1 14-2 14-4 12-5 11-1 4v8l4 10 15 26 8 15 13 30 9 25 8 29 6 31 3 23 1 12v55l-3 29-6 33-8 30-10 29-11 26-11 22-13 22-10 15-10 14-13 16-12 14-29 29-11 9-12 10-18 13-17 11-17 10-25 13-29 12-30 10-28 7-28 5-28 3-30 1-27-1-29-3-28-5-32-8-35-12-25-11-22-11-25-15-20-14-14-11-13-11-12-11-22-22-9-11-10-12-13-18-11-17-12-21-8-16-9-19-10-26-10-31-7-30-4-23-2-18-1-15v-37l3-32 5-29 7-28 11-33 10-24 12-25 14-27 5-4 16-6 7-2h4l3 15v12l-8 20-14 30-14 32-8 22-7 28-4 23-2 18-1 15v31l2 26 4 26 6 26 8 27 10 25 12 25 9 17 12 19 10 14 10 13 11 13 11 12 17 17 11 9 13 11 20 14 18 11 22 12 27 12 33 11 30 7 26 4 20 2 33 1 24-1 33-4 29-6 25-7 28-10 24-11 21-11 21-13 18-13 16-13 11-10 8-7 11-11 7-8 11-13 12-16 12-18 11-19 9-17 11-26 11-33 7-30 5-32 2-25v-39l-3-32-5-28-8-30-9-25-9-20-13-25-13-20-3-4-15 1h-18l-16-3-14-5-14-9-10-10-7-11-5-12-3-13v-23l2-14-15-11-21-13-26-13-23-9-26-8-26-6-27-4-25-2h-36l-34 3-29 5-27 7-27 9-23 10-20 10-20 12-17 12-14 11-12 11-3 2 2 4 47 47 8 7 19 19 5-2 12-9 19-12 23-12 26-10 25-7 22-4 23-2h24l29 3 24 5 20 6 20 8 21 10 18 11 14 10 10 8 10 9 8 7 14 15 13 17 10 15 9 16 9 19 7 20 5 17 5 26 2 18v40l-3 25-5 23-11 33-13 27-13 21-10 13-11 13-11 12-8 7-14 12-17 12-19 11-23 11-14 6-8 6-7 8-13 26-6 8-8 8-11 7-15 5-11 2h-18l-15-3-12-5-10-7-7-6-9-12-7-16-6-12-8-7-18-8-20-9-19-11-17-12-10-8-10-9-8-7-14-15-13-17-10-15-9-16-10-21-9-25-6-24-4-28v-45l4-27 5-21 7-21 8-19 6-8 4-4 3-1h9l10 5 4 5 1 9-13 39-5 21-3 20-1 12v29l3 26 6 25 7 20 11 23 10 16 9 12 9 11 18 18 17 13 15 10 21 11 14 6 11 3 2-4 8-10 10-10 13-9 13-6 15-4h18l16 4 14 7 14 11 7 7 9 12 8-1 15-5 23-11 15-10 14-11 13-12 7-7 9-11 10-13 11-18 11-21 8-21 6-24 3-24v-37l-3-23-5-22-6-18-8-18-9-17-10-15-11-14-11-12-10-10-14-11-14-10-21-12-23-10-23-7-20-4-17-2h-36l-23 3-21 5-20 7-23 11-17 11-14 11v3l7 7 8 7 29 29 8 7 24 24 5-1 15-7 18-5 13-2h19l20 4 16 6 17 9 11 9 10 9 10 13 8 14 6 15 4 16 1 8v19l-3 18-5 15-9 17-11 14-11 11-14 10-17 9-15 5-16 3h-23l-19-4-15-6-15-8-10-8-10-9-11-13-9-16-6-15-3-14v-14l5-12 7-8 4-2h9l6 5 4 10 5 21 6 15 7 12 11 12 10 7 11 5 12 3h22l17-4 11-5 10-6 6-5 9-12 7-15 4-16v-24l-3-12-8-15-11-12-10-8-10-6-14-5-6-1h-19l-17 4-12 5v2l9 9 8 7 16 15 12 13 3 6 1 5v20l-20-1-8-3-8-7-114-114-8-7-247-247-5-9v-11l5-9 20-20 8-7 14-12 16-13 18-13 17-12 21-13 25-14 24-12 29-12 25-9 35-10 33-7 35-5 16-2zm321 243-10 3-10 7-7 8-4 9-1 4v12l4 11 6 8 8 7 8 4 3 1h16l10-4 10-9 4-5 4-8 1-4v-15l-4-10-6-8-7-6-9-4-5-1zm-283 522-10 4-10 9-6 10-2 9v9l3 10 6 10 8 7 11 5 5 1h9l10-3 10-7 7-8 4-9 1-4v-14l-4-11-8-10-10-6-6-2zm374 130-11 4-9 7-6 9-3 8v16l4 10 6 8 7 6 8 4 4 1h16l10-4 9-7 6-9 3-8v-17l-5-12-7-8-10-6-7-2z" fill="#868686"/>
</svg>
