<?xml version="1.0" encoding="UTF-8"?>
<svg version="1.1" viewBox="0 0 1520 1559" width="1520" height="1559" xmlns="http://www.w3.org/2000/svg">
<path transform="translate(431,390)" d="m0 0h9l8 4 319 319 4-2 95-95-3-9-3-12v-16l4-16 6-11 9-11 11-8 10-5 11-3 13-1 14 2 15 6 13 10 9 11 6 13 3 12v17l-4 15-7 13-10 11-14 9-15 5-16 1-12-2-13-5-4 2-95 95 6 7 294 294 4 6 1 3v9l-3 6-7 6-24 13-27 13-28 11-34 11-28 7-26 5-30 4-28 2h-43l-28-2-31-4 12 24 11 23 17 35 14 29 16 33 12 25 17 35 7 15 1 8-3 8-5 5-6 3h-469l-8-4-4-5-2-6 1-9 13-26 10-19 20-39 15-29 17-33 15-29 17-33 15-29 18-35 15-29 10-19-4-2-13-11-24-22-10-10-7-8-11-12-11-14-14-18-14-21-15-25-14-27-11-24-10-27-9-28-7-28-5-26-4-31-2-28v-41l2-28 4-30 6-31 9-34 11-32 11-26 12-25 12-22 8-7zm8 47-12 25-11 27-11 34-7 29-5 28-3 25-1 13v58l3 30 5 31 7 29 8 27 12 31 12 26 10 19 12 20 8 12 12 17 11 14 12 14 22 24 8 7 8 8 11 9 13 11 18 13 21 14 24 14 19 10 25 11 27 10 26 8 24 6 35 6 31 3h59l31-3 35-6 28-7 23-7 29-11 28-13 6-3-6-7-606-606zm478 123-10 4-7 7-4 8v15l4 8 7 7 10 4h10l10-4 5-4 5-8 1-3v-15l-4-8-7-7-10-4zm-351 492-23 45-12 23-18 35-17 33-15 29-17 33-15 29-17 33-12 23v2h402l-2-6-23-47-11-23-17-35-28-58-16-33-7-15-29-9-28-10-25-11-17-8-22-12-21-13-7-5z" fill="#868686"/>
<path transform="translate(1025,247)" d="m0 0 24 1 23 3 26 6 23 8 18 8 21 12 18 13 15 13 15 15 9 11 11 15 9 15 9 17 10 26 6 22 4 22 2 22v26l-2 22-4 24-3 11-4 6-7 4h-11l-8-5-4-7v-11l4-21 2-18v-36l-3-23-6-25-8-21-10-20-12-18-9-11-9-10-8-8-14-11-13-9-16-9-20-9-23-7-21-4-19-2h-27l-27 3-20 4-8-1-7-4-4-6-1-3v-8l4-8 5-4 9-3 29-5 10-1z" fill="#868686"/>
<path transform="translate(967,340)" d="m0 0h40l20 3 23 6 20 8 19 10 14 10 11 9 18 18 10 13 11 18 10 21 7 22 4 20 2 19v22l-3 26-4 18-4 6-7 4-7 1-9-3-6-7-2-10 4-21 1-10v-30l-3-20-6-21-8-18-9-15-11-14-14-14-15-11-16-9-20-8-21-5-18-2h-22l-24 3-9 2h-7l-8-4-5-6-1-3v-10l4-7 5-4 15-4z" fill="#868686"/>
<path transform="translate(964,456)" d="m0 0h23l17 4 12 5 12 8 10 9 9 12 7 14 4 13 2 21-2 17-3 9-5 5-6 3h-9l-8-4-5-8v-11l1-6v-14l-3-12-6-11-4-5-10-7-9-4-13-2-14 1-9 1-8-3-5-5-3-7v-7l4-8 5-4 10-3z" fill="#868686"/>
</svg>
