<?xml version="1.0" encoding="UTF-8"?>
<svg version="1.1" viewBox="0 0 1520 1559" width="1520" height="1559" xmlns="http://www.w3.org/2000/svg">
<path transform="translate(1120,260)" d="m0 0h32l27 4 19 5 21 8 16 8 15 9 16 12 10 9 8 7 7 8 10 12 10 15 10 18 8 20 6 20 3 17 1 10v37l-3 21-6 24-8 21-12 23-12 17-9 11-20 20-17 13-20 12-15 8-5 2h-11l-12-5-7-7v-9l4-10 5-6 30-15 17-12 13-12 7-7 10-13 11-18 7-15 6-18 4-19 1-9v-29l-4-24-8-24-12-23-10-14-10-11-4-5-8-7-15-11-16-9-16-7-21-6-20-3h-27l-21 3-19 5-20 8-4 2 17 10 10 8 11 11 7 10 8 16 6 18 5 25 11 92 13 97 6 52-1 14-5 16-7 11-113 113-7 8-362 362-11 9-14 9-13 5-5 1h-18l-14-4-13-7-10-8-10-9-155-155-8-7-91-91-7-8-44-44-7-10-8-16-3-13v-12l3-12 5-12 10-14 11-12 480-480 12-8 14-4h12l66 9 66 8 16 2 6 3 11 11 8 10-2 4-15 11-4 2h-13l-53-6-57-7-10-1h-19l-13 4-8 6-12 12-8 7-195 195-8 7-251 251-6 10-2 7 1 11 5 9 9 10 299 299 10 6 5 2h11l9-4 8-6 474-474 7-12 1-3v-12l-14-111-19-142-3-9-18-14-15-10-13-6-4-1h-7l-10 7-23 23-2 1 8 5 18 12 12 11 7 7 7 10 6 12 5 17 1 7v22l-3 16-6 16-10 16-15 15-15 10-15 6-15 4-7 1h-17l-15-3-16-6-14-9-11-9-7-8-7-10-8-16-4-13-2-12v-20l4-18 6-15 7-11 10-12 13-10 15-8 16-6 10-6 9-9 10-17 10-16 13-16 11-12 12-11 18-13 17-10 17-8 21-7 23-5zm-143 177v55l-2 13-3 5-5 3h-9l-6-3-8-9-6-12-2-10v-41l-8 4-9 7-8 8-6 10-2 6-1 13 3 14 6 12 8 10 11 8 11 5 5 1h16l13-3 12-6 9-8 8-14 3-10 1-7v-13l-4-13-6-9-10-10-9-6z" fill="#868686"/>
<path transform="translate(1145,743)" d="m0 0h10l7 3 5 6 2 7 2 26 4 18 2 21-1 9-8 16-6 8-173 173-7 8-116 116-8 7-195 195-15 10-13 5-9 2h-15l-13-3-16-8-10-8-41-41-8-7-262-262-10-13-8-16-3-13v-16l3-12 5-10 6-8 10-5 21-5 4 15 1 5v8l-5 11-1 3v14l5 10 11 12 87 87 8 7 141 141 7 8 54 54 11 7 7 2 10-1 10-5 10-9 457-457 7-8 13-13 4-8 3-11 2-17v-11l-4-22v-11l4-8 7-4z" fill="#868686"/>
<path transform="translate(753,616)" d="m0 0 9 1 5 3 6 7 6 15 7 20v12l-2 13v15l4 11 6 9 8 8 14 9 12 7 14 11 7 8 5 11 1 4v11l-4 9-5 6-8 4-24 6-15 6-13 7-10 8-10 10-9 14-8 17-5 17-3 13-6 9-8 5-7 2h-10l-10-3-9-7-6-9-10-16-12-14-10-8-14-8-14-5-10-2-10-1h-15l-12 1h-11l-9-3-7-6-5-10-1-4v-12l3-10 5-8 8-8 11-15 8-16 4-16v-23l-4-18-6-15-5-12-1-4v-11l3-8 7-8 8-4 7-2h16l16 4 16 8 16 4h17l12-3 16-8 9-6 14-12 12-6 9-3zm-12 50m-1 1-10 10-13 10-16 8-13 4-6 1h-21l-15-3-18-6-9-4h-2l2 5 7 15 4 13 2 14v9l-3 17-6 16-8 14-10 13-6 8 22-3h10l14 2 15 5 13 8 13 11 11 13 10 15 4 5 5-23 6-16 9-15 7-8 10-8 14-8 18-6 19-4-4-3-16-9-11-9-9-9-9-14-6-15-3-15v-38z" fill="#868686"/>
</svg>
