<?xml version="1.0" encoding="UTF-8"?>
<svg version="1.1" viewBox="0 0 1520 1559" width="1520" height="1559" xmlns="http://www.w3.org/2000/svg">
<path transform="translate(1111,278)" d="m0 0h37l26 4 21 6 20 8 21 11 16 11 11 9 12 11 12 13 12 16 9 15 8 16 7 19 5 19 3 20v41l-4 25-7 24-8 19-10 19-12 17-12 14-14 14-14 11-15 10-18 10-13 6h-10l-10-4-6-4-5-6v-10l6-12 8-7 20-9 14-9 14-11 13-13 10-13 8-13 8-16 6-16 5-23 1-10v-25l-3-20-6-21-9-20-10-16-11-14-14-14-16-12-18-10-21-8-17-4-15-2h-26l-21 3-21 6-15 6h-2v2l6 2 12 8 10 9 8 8 9 14 7 16 6 21 4 24 8 69 16 121 4 35v15l-4 16-7 13-52 52-7 8-421 421-15 11-13 6-11 3h-18l-16-5-11-6-14-11-89-89-8-7-202-202-9-11-7-10-6-13-3-12v-14l3-12 4-10 8-12 11-13 474-474 14-9 10-3h20l51 7 73 9 17 2 6 3 7 6 9 11 5 6-2 4-8 6-10 7-9 2-46-5-66-8-19-2h-9l-13 3-10 6-134 134-8 7-324 324-5 8-2 8 1 9 6 10 9 10 29 29 8 7 235 235 7 8 9 9 11 8 8 3h8l9-4 8-6 463-463 7-10 2-5v-13l-14-111-18-135-3-10-14-10-15-11-15-7-9-1-9 6-8 7-7 8-8 7 4 3 16 10 13 11 8 8 9 13 7 15 4 18v27l-4 17-7 16-8 12-10 11-13 10-16 8-16 5-11 2h-19l-15-3-15-6-12-7-13-11-9-10-10-16-6-16-3-14v-26l4-17 7-16 10-14 11-11 15-10 25-10 9-6 7-7 9-15 10-16 9-12 9-10 7-8 11-10 16-12 19-11 19-9 22-7 24-5zm-135 179-1 59-3 9-5 4-2 1h-12l-6-4-8-9-5-10-2-7-1-8v-34l-10 6-7 6-6 8-4 8-2 9v8l3 13 6 11 9 10 8 6 11 5 5 1h13l14-3 10-5 10-9 6-10 3-8 2-10v-13l-3-10-6-10-10-10z" fill="#868686"/>
<path transform="translate(1140,752)" d="m0 0h8l8 3 6 7 2 6 2 26 4 19 2 20v8l-9 19-9 10-39 39-7 8-388 388-8 7-47 47-14 9-13 5-9 2h-15l-16-4-15-8-14-12-303-303-10-14-6-15-2-8v-20l4-14 6-10 4-5 12-6 22-5 5 23-1 10-4 8-1 3v13l5 10 12 13 13 13 8 7 258 258 7 8 10 8 7 3h12l10-5 12-11 401-401 7-8 57-57 4-8 4-18 1-18-4-22v-12l3-7 7-6z" fill="#868686"/>
<path transform="translate(749,628)" d="m0 0h13l7 4 7 9 7 19 5 15v12l-2 13v13l3 10 7 10 7 7 13 8 15 9 15 13 7 11 3 11v8l-4 11-5 6-10 5-24 6-16 7-11 6-11 9-9 10-9 15-7 17-6 24-6 10-9 6-8 2h-10l-10-3-8-6-6-7-10-17-11-13-11-10-16-9-17-5-6-1h-47l-9-4-7-6-4-8-2-8v-9l4-13 5-8 10-10 10-15 6-13 3-11 1-7v-14l-3-17-7-19-5-11-1-4v-14l5-10 9-8 12-4h16l16 4 19 9 14 3h13l16-4 15-8 14-11 7-6 12-6zm-11 57-7 7-14 10-14 7-13 4-6 1h-21l-19-4-16-6h-3l2 6 5 12 4 16v23l-5 19-8 16-8 12-6 7v2l24-1 15 2 14 5 13 7 14 12 11 13 10 15 2-2 4-17 5-13 8-14 9-10 9-8 14-8 13-5 17-4v-2l-15-9-14-12-10-13-7-15-4-14-2-17v-22z" fill="#868686"/>
<path transform="translate(1111,278)" d="m0 0h37l26 4 21 6 20 8 21 11 16 11 11 9 12 11 12 13 12 16 9 15 8 16 7 19 5 19 3 20v41l-4 25-7 24-8 19-10 19-12 17-12 14-14 14-14 11-15 10-18 10-13 6h-10l-10-4-6-4-5-6v-10l6-12 8-7 20-9 14-9 14-11 13-13 10-13 8-13 8-16 6-16 5-23 1-10v-25l-3-20-6-21-9-20-10-16-11-14-14-14-16-12-18-10-21-8-17-4-15-2h-26l-21 3-21 6-15 6h-2v2l6 2 12 8 10 9 8 8 9 14 7 16 6 21 4 24 8 69 16 121 4 35v15l-4 16-7 13-52 52-7 8-421 421-15 11-13 6-11 3h-18l-16-5-11-6-14-11-89-89-8-7-202-202-9-11-7-10-6-13-3-12v-14l3-12 4-10 8-12 11-13 474-474 14-9 10-3h20l51 7 73 9 17 2 6 3 7 6 9 11 5 6-2 4-8 6-10 7-9 2-46-5-66-8-19-2h-9l-13 3-10 6-134 134-8 7-324 324-5 8-2 8 1 9 6 10 9 10 29 29 8 7 235 235 7 8 9 9 11 8 8 3h8l9-4 8-6 463-463 7-10 2-5v-13l-14-111-18-135-3-10-14-10-15-11-15-7-9-1-9 6-8 7-7 8-8 7 4 3 16 10 13 11 8 8 9 13 7 15 4 18v27l-4 17-7 16-8 12-10 11-13 10-16 8-16 5-11 2h-19l-15-3-15-6-12-7-13-11-9-10-10-16-6-16-3-14v-26l4-17 7-16 10-14 11-11 15-10 25-10 9-6 7-7 9-15 10-16 9-12 9-10 7-8 11-10 16-12 19-11 19-9 22-7 24-5zm7 4-24 3-21 5-22 8-23 12-17 12-13 11-15 15-13 17-11 18-6 10-8 10-10 7-11 5-13 5-11 6-11 9-9 10-9 15-6 18-2 12v17l3 16 6 15 6 11 8 10 12 12 14 9 12 5 15 4 16 1 19-3 19-7 14-9 10-9 9-10 9-16 5-16 2-12v-17l-3-17-5-13-6-11-12-14-12-10-15-10-11-6v-2l8-7 19-19 9-6h11l13 5 15 10 21 16 3 8 20 150 13 104v8l-4 10-7 9-432 432-7 8-22 22-12 9-7 3h-14l-12-6-10-9-294-294-6-10-2-6v-11l4-10 9-11 71-71 8-7 324-324 8-7 52-52 12-6 8-2h19l67 8 53 6h9l9-5 10-8-6-8-7-8-7-6-13-2-90-11-43-6h-13l-13 4-10 7-482 482-9 13-6 13-2 7-1 10 2 14 5 12 9 14 11 12 295 295 16 12 14 7 13 3h10l13-3 16-8 11-9 13-12 352-352 7-8 106-106 7-12 4-13 1-12-6-52-16-121-7-61-4-22-5-18-7-16-8-12-11-12-13-10-16-8-4-1v-2l9-3 19-8 23-6 13-2 20-1 18 1 17 3 17 5 17 7 16 9 16 12 12 11 9 11 10 14 9 16 7 17 5 17 3 18v36l-4 22-7 21-8 17-9 14-10 13-10 11-11 9-12 9-16 9-17 8-6 8-3 8 1 7 8 6 11 4 7-1 16-8 13-7 12-8 14-11 15-14 12-14 11-16 9-16 8-18 6-18 5-23 2-18v-27l-3-24-5-20-8-21-11-21-11-16-11-13-18-18-17-13-18-11-21-10-21-7-23-5-19-2z" fill="#fff"/>
<path transform="translate(1140,752)" d="m0 0h8l8 3 6 7 2 6 2 26 4 19 2 20v8l-9 19-9 10-39 39-7 8-388 388-8 7-47 47-14 9-13 5-9 2h-15l-16-4-15-8-14-12-303-303-10-14-6-15-2-8v-20l4-14 6-10 4-5 12-6 22-5 5 23-1 10-4 8-1 3v13l5 10 12 13 13 13 8 7 258 258 7 8 10 8 7 3h12l10-5 12-11 401-401 7-8 57-57 4-8 4-18 1-18-4-22v-12l3-7 7-6zm-2 5-9 3-4 4-2 11 4 22v18l-3 19-4 11-9 10-12 13-457 457-12 7-4 1h-10l-10-4-10-8-298-298-6-10-2-6v-11l5-13 1-2v-9l-4-15-18 4-8 4-6 7-5 10-3 12v13l4 16 6 12 8 10 11 12 251 251 8 7 40 40 14 9 13 5 4 1h20l13-4 10-5 13-10 489-489 8-14 3-7v-12l-2-19-3-11-2-27-3-10-5-4-2-1z" fill="#fff"/>
<path transform="translate(749,628)" d="m0 0h13l7 4 7 9 7 19 5 15v12l-2 13v13l3 10 7 10 7 7 13 8 15 9 15 13 7 11 3 11v8l-4 11-5 6-10 5-24 6-16 7-11 6-11 9-9 10-9 15-7 17-6 24-6 10-9 6-8 2h-10l-10-3-8-6-6-7-10-17-11-13-11-10-16-9-17-5-6-1h-47l-9-4-7-6-4-8-2-8v-9l4-13 5-8 10-10 10-15 6-13 3-11 1-7v-14l-3-17-7-19-5-11-1-4v-14l5-10 9-8 12-4h16l16 4 19 9 14 3h13l16-4 15-8 14-11 7-6 12-6zm4 4-12 3-9 4-9 6-10 9-13 8-13 6-9 2h-21l-15-4-19-9-15-3h-8l-11 3-9 6-4 6-2 7v7l4 12 7 16 4 15 1 6v24l-4 15-8 17-9 12-11 12-5 10-1 4v13l4 10 8 7 9 3 16-1h23l17 3 14 5 11 6 15 12 9 11 10 15 6 10 8 6 7 3h14l9-4 6-7 3-9 5-19 6-15 8-14 8-10 9-9 15-10 16-7 17-5 13-3 6-4 5-6 2-5v-12l-4-10-6-8-11-10-26-16-11-9-7-10-4-10-1-13 2-12v-18l-9-26-6-11-5-4z" fill="#fff"/>
<path transform="translate(745,671)" d="m0 0 1 4-2 15v24l3 16 5 13 7 12 9 10 9 8 13 8 16 8 2 2-24 4-21 7-11 6-10 8-9 10-8 14-5 14-4 17-2 12-4-4-10-16-11-14-11-11-14-9-12-5-13-3h-20l-20 4-4-1 7-7 11-14 8-13 5-10 5-17 1-7v-13l-3-16-6-15-8-15-2-4 6 2 16 7 20 6 15 2 16-1 15-4 14-7 12-9 11-10zm-7 14-7 7-14 10-14 7-13 4-6 1h-21l-19-4-16-6h-3l2 6 5 12 4 16v23l-5 19-8 16-8 12-6 7v2l24-1 15 2 14 5 13 7 14 12 11 13 10 15 2-2 4-17 5-13 8-14 9-10 9-8 14-8 13-5 17-4v-2l-15-9-14-12-10-13-7-15-4-14-2-17v-22z" fill="#fff"/>
<path transform="translate(971,449)" d="m0 0 10 5 11 9 7 8 5 10 2 7v20l-3 12-6 12-8 9-11 7-11 4-5 1h-21l-12-4-13-9-8-9-8-16-2-8v-16l4-12 8-11 10-9 14-8h2v45l3 11 5 9 6 7 6 3 9-1 3-3 2-5 1-14zm5 8-1 59-3 9-5 4-2 1h-12l-6-4-8-9-5-10-2-7-1-8v-34l-10 6-7 6-6 8-4 8-2 9v8l3 13 6 11 9 10 8 6 11 5 5 1h13l14-3 10-5 10-9 6-10 3-8 2-10v-13l-3-10-6-10-10-10z" fill="#fff"/>
</svg>
