<?xml version="1.0" encoding="UTF-8"?>
<svg version="1.1" viewBox="0 0 1520 1559" width="1520" height="1559" xmlns="http://www.w3.org/2000/svg">
<path transform="translate(713,252)" d="m0 0h50l19 2 49 7 31 7 28 8 26 9 26 11 25 12 24 13 19 12 19 13 16 12 10 8 13 11 20 18 22 22 7 8 13 15 11 14 14 19 10 15 13 21 10 18 12 23 13 30 10 28 9 29 7 30 6 35 3 30 1 20v28l-2 32-1 10v15l3 13 7 14 10 19 8 20 6 21 4 26v36l-4 26-7 24-8 19-10 19-11 16-9 11-10 12-6 13-2 7v42l5 113 1 30v16l-4 13-10 22h-21l-14-12-12-11-11-9-14-13-8-7-14-12-12-11-8-7-9-8-6 4-10 9-11 9-11 10-11 9-11 10-11 9-11 10-11 9-11 10-2 1h-20l-4-10-8-24-1-6v-43l2-33v-13l-44 17-30 10-31 8-36 7-34 4-15 1h-53l-35-3-33-5-33-7-35-10-31-11-32-14-22-11-24-14-16-10-20-14-13-10-11-9-14-12-17-16-14-14-7-8-9-10-9-11-14-18-14-20-14-22-13-23-11-21-14-32-11-30-9-30-7-29-6-34-4-40v-60l3-33 5-32 6-28 8-30 12-35 11-26 12-25 13-24 12-19 8-12 13-18 11-13 9-11 15-16 24-24 8-7 15-13 15-12 19-14 21-14 20-12 18-10 22-11 29-12 33-11 38-10 33-7 33-5zm7 36-33 2-32 4-31 6-27 7-36 12-27 11-29 14-23 13-22 14-18 13-14 11-11 9-12 11-8 7-22 22-7 8-12 14-10 13-13 18-10 15-9 15-10 18-8 16-10 21-10 26-10 31-7 28-6 33-4 38-1 36 1 28 3 31 6 36 7 29 8 26 9 25 12 27 12 24 13 22 16 24 12 16 8 10 11 13 11 12 14 15 10 9 13 12 11 9 18 14 23 16 20 12 18 10 15 8 27 12 29 11 29 9 30 7 28 5 25 3 13 1h62l31-3 30-5 31-7 30-9 29-11 20-9 11-7 7-8 3-22v-35l-4-16-9-17-12-16-13-15-10-11-9-11-5-1-52 17-51 16-28 8-8 1h-9l-12-2-73-23-144-46-26-8-10-5-5-5-3-4-3-11v-350l3-10 4-6 8-6 36-12 57-18 59-19 57-18 42-13 13-2 13 1 33 10 63 20 125 40 33 11 9 6 4 6 2 7 1 144 12-2 19-3 11-1h25l24 3 24 6 21 8 19 9 18 11 7 4 2-21v-51l-3-32-6-36-7-29-8-26-8-22-13-30-10-20-14-24-12-19-13-18-11-14-11-13-9-10-7-8-22-22-8-7-14-12-17-13-18-13-17-11-24-14-19-10-29-13-30-11-27-8-30-7-30-5-29-3-21-1zm17 283-21 3-21 6-34 13-38 13-58 18-19 6 1 2 55 18 122 39 17 5h16l51-16 71-23 62-20 10-4-3-2-85-27-35-12-26-10-21-6-21-3zm-234 85v178l1 134 5 7 9 6 41 14 159 51h3l1-308-2-8-5-6-12-5-71-23-57-18-44-14-26-8zm487 1-30 9-71 23-117 37-9 6-4 5-2 6v295l2 14 12-3 49-16 50-16 18-6v-10l-1-12v-34l3-25 5-21 7-20 8-16 8-14 13-17 12-13 7-7 11-9 13-10 12-8 6-8 2-6v-124zm78 148-18 3-21 6-20 9-18 11-11 9-10 9-9 9-13 17-9 16-6 12-8 24-4 24v29l3 20 6 21 8 18 8 14 12 16 9 10 9 9 17 13 21 12 20 8 20 5 14 2h34l19-3 18-5 21-9 14-8 16-12 12-11 11-12 11-16 9-16 7-17 5-19 3-20v-29l-3-20-6-21-7-16-8-15-10-14-11-13-9-9-14-11-14-9-16-8-15-6-20-5-13-2zm-80 339v169l4-2 10-9 11-9 11-10 11-9 11-10 22-18 9-5 2-1h11l10 5 10 8 14 12 15 13 14 12 11 9 10 9 11 9 2 1-2-51-5-111-1-10-5 1-21 8-21 6-22 4-10 1h-30l-22-3-25-6-20-7z" fill="#868686"/>
<path transform="translate(1174,885)" d="m0 0h8l7 4 6 7 2 8-3 8-8 10-5 4-7 8-102 102-10 5h-7l-10-5-47-47-7-8-9-10-2-5v-24l3-1 20 3 6 4 10 9 17 17 7 8 16 17 5-4 7-8 8-8 7-8 8-8 7-8 11-11 7-8 44-44 9-6z" fill="#868686"/>
</svg>
